<?xml version="1.0" encoding="UTF-8"?>
<svg width="100" height="100" version="1.1" viewBox="0 0 26.458 26.458" xmlns="http://www.w3.org/2000/svg" xmlns:xlink="http://www.w3.org/1999/xlink"><title>Recipe Hub</title><g transform="translate(6.2971 6.641)"><rect transform="rotate(225.16)" x="-22.789" y="-12.96" width="26.458" height="26.458" ry="0" fill="#ffa500" stroke-width=".22195"/><rect transform="rotate(17.677)" x="-4.6239" y="-9.057" width="26.458" height="26.458" ry="7.0435" fill="#ffa500" stroke-width=".22515"/><path d="m17.509 4.0508q-0.85677 2.5122-1.7135 5.0389-0.98746 2.9624-1.5828 5.0244-0.0726 0.24686-0.08713 1.1036 0 0.85676-0.13069 1.2198-0.2033 0.56634-0.76964 0.56634-0.46469 0-1.2053-0.36304-0.15974-0.15974-0.15974-0.50825 0-0.49373 0.36304-1.4521 0.29043-0.74059 0.59538-1.4812-0.2033-0.42112-1.0891-0.42112-0.37756 0-2.5267 0.36304-0.59538 1.6845-0.74059 3.8627-0.36304 0.10164-0.72607 0.18878-0.65346 0.15974-1.0891 0.15974-0.29043 0-0.50825-0.0726-0.029043-0.52277 0.37756-1.8442 0.46469-1.5102 0.50825-1.7426-0.17426-0.11617-0.42112-0.11617-0.08713 0-0.29043 0.02905-0.18878 0.01453-0.27591 0.01453-0.8132 0-1.2634-1.0891 0.1307-0.58087 1.0746-0.63896 1.1182-0.08713 1.4086-0.39208 0.92937-0.9439 1.365-3.0786 0.33399-1.6845 0.66799-3.3545 0.50825-1.6264 1.699-1.7861 0 0.13069 0.26139 0.47921 0.18878 0.24686 0.36304 0.47921-0.95842 2.6719-1.2488 3.4851-0.69703 2.033-1.1327 3.6304 0.47921 0.2033 1.2924 0.2033 0.87129 0 1.5102-0.24686 0.72607-0.30495 0.82772-0.88581 0.10164 0 0.43564 0.11617 0.34851 0.10165 0.46468 0.10165 0.58086-1.1762 1.0746-3.3545 0.2033-0.87129 0.72607-3.6739 0.79868-0.6099 1.4231-0.49373 0.15974 0.10165 0.33399 0.43564 0.18878 0.31947 0.18878 0.49373zm-10.538-4.8502q-0.029043 1.2198-1.1327 2.2653-0.79868 0.76964-2.5122 1.6845-2.6429 1.4231-2.7736 1.4957 0.31947 0.49373 0.63894 1.2924 0.34851 0.85677 0.66799 1.4086 0.56634 0.95842 1.6264 2.2073 0.072607 0.10165 0.072607 0.31947 0 0.46469-0.23234 0.91485-0.62442 0.11617-1.4231-0.14522-0.46469-0.58086-1.4231-2.1492-0.87129-1.4231-1.5683-2.2508-0.42112 0.14521-0.58086 0.87129-0.072607 0.33399-0.15974 1.5538-0.072607 1.1036-0.24686 1.67-0.30495 0.08713-0.55181 0.08713-1.0601 0-1.0601-1.5102 0-1.1472 0.49373-2.5122 0.69703-1.8442 1.4086-3.6884 0.87129-2.4106 0.87129-3.4851 0-0.55181-0.2033-0.8132 0.43564-0.62442 0.85676-1.2488 0.66799-0.91485 1.2198-0.91485 0.2033 0 0.42112 0.13069 0.17426 0.13069 0.49373 0.52277 0.33399 0.39208 0.56634 0.55181 0.78416 0.087129 1.5828 0.18878 1.1327 0.14521 1.8152 0.43564 0.91485 0.4066 1.1327 1.1182zm-2.1201-0.072607q-0.94389-0.029041-1.8878-0.058086-1.1036 0-1.8733 0.13069-1.0455 1.5683-1.1472 3.9934 1.5974-0.34851 3.1512-1.3941 1.7861-1.2053 1.7861-2.396 0-0.14521-0.029041-0.27591z" stroke-width=".54541" style="white-space:pre"/></g></svg>
